<?xml version="1.0" encoding="UTF-8"?><svg xmlns="http://www.w3.org/2000/svg" xmlns:xlink="http://www.w3.org/1999/xlink" contentScriptType="text/ecmascript" width="375" zoomAndPan="magnify" contentStyleType="text/css" viewBox="0 0 375 374.999991" height="374.999991" preserveAspectRatio="xMidYMid meet" version="1.0"><defs><clipPath id="clip-0"><path d="M 155 147.195312 L 276.808594 147.195312 L 276.808594 199.695312 L 155 199.695312 Z M 155 147.195312 " clip-rule="nonzero"/></clipPath><clipPath id="clip-1"><path d="M 154.933594 147.195312 L 276.808594 147.195312 L 276.808594 199.695312 L 154.933594 199.695312 Z M 154.933594 147.195312 " clip-rule="nonzero"/></clipPath><clipPath id="clip-2"><path d="M 138 167 L 162 167 L 162 176 L 138 176 Z M 138 167 " clip-rule="nonzero"/></clipPath><clipPath id="clip-3"><path d="M 139.058594 167.179688 L 161.410156 169.773438 L 160.761719 175.359375 L 138.410156 172.765625 Z M 139.058594 167.179688 " clip-rule="nonzero"/></clipPath><clipPath id="clip-4"><path d="M 139.058594 167.179688 L 215.421875 176.039062 L 214.773438 181.628906 L 138.410156 172.765625 Z M 139.058594 167.179688 " clip-rule="nonzero"/></clipPath></defs><path fill="rgb(29.40979%, 19.60907%, 17.649841%)" d="M 331.890625 308.699219 C 339.910156 303.777344 344.105469 297.058594 347.316406 288.433594 C 350.867188 278.882812 355.609375 279.089844 362.457031 287.492188 C 364.285156 289.734375 363.542969 293.285156 368.152344 292.152344 C 372.546875 291.066406 373.117188 283.304688 373.503906 279.679688 C 374.964844 266.121094 371.347656 255.769531 364.171875 244.523438 C 359.609375 237.382812 352.726562 232.160156 347.75 225.347656 C 342.984375 218.835938 344.292969 217.53125 346.890625 210.328125 C 349.332031 203.585938 349.433594 196.441406 347.246094 189.609375 C 344.222656 180.175781 337.664062 171.707031 329.03125 166.769531 C 323.839844 163.796875 317.488281 161.78125 314.375 156.261719 C 311.1875 150.582031 311.660156 143.332031 311.550781 137.054688 C 311.363281 124.5 311.179688 111.019531 303.761719 100.292969 C 300.824219 96.042969 296.9375 92.324219 292.199219 90.167969 C 289.9375 89.144531 287.574219 88.503906 285.09375 88.253906 C 281.769531 87.917969 277.730469 88.617188 274.855469 86.519531 C 272.554688 84.84375 271.796875 81.839844 271.21875 79.207031 C 270.5625 76.277344 270 73.367188 269.0625 70.507812 C 267.367188 65.363281 264.9375 60.4375 261.875 55.976562 C 255.851562 47.226562 247.414062 40.113281 237.390625 36.4375 C 217.597656 29.175781 192.773438 38.910156 184.851562 58.585938 C 170.207031 52.300781 153.117188 52.355469 138.480469 58.828125 C 122.511719 65.890625 110.8125 80.859375 106.761719 97.75 C 105.765625 101.898438 105.226562 106.179688 105.191406 110.445312 C 105.152344 115 105.882812 119.476562 106.429688 123.984375 C 106.976562 128.503906 107.457031 133.296875 106.105469 137.730469 C 104.609375 142.640625 100.703125 145.703125 96.070312 147.519531 C 91.921875 149.140625 87.519531 150.0625 83.296875 151.464844 C 78.871094 152.929688 74.53125 154.6875 70.351562 156.75 C 62.1875 160.789062 54.542969 166.085938 48.289062 172.746094 C 41.453125 180.007812 34.984375 189.773438 35.609375 200.183594 C 35.949219 205.949219 38.992188 211.644531 43.679688 214.832031 C 30.011719 216.933594 18.753906 227.59375 12.128906 239.648438 C 1.386719 259.203125 0.0351562 280.410156 18.894531 294.703125 C 25.828125 299.960938 32.933594 301.167969 40.820312 303.683594 C 47.1875 305.71875 52.132812 309.574219 53.371094 316.230469 C 54.824219 324.058594 48.5 329.710938 48.53125 336.925781 C 48.574219 345.515625 58.167969 346.046875 65.265625 345.195312 C 77.144531 343.765625 84.054688 331.421875 94.691406 328.792969 C 103.203125 326.6875 113.402344 335.117188 122.265625 335.542969 C 128.125 335.820312 135.316406 336.441406 141.015625 335.058594 C 147.109375 333.578125 151.113281 328.683594 156.703125 326.585938 C 164.933594 323.5 174.21875 332.726562 184.230469 332.785156 C 193.328125 332.839844 202.335938 328.316406 209.726562 323.328125 C 215.3125 319.554688 216.691406 317.101562 222.125 317.8125 C 235.808594 319.601562 245.464844 329.632812 259.992188 330.03125 C 273.8125 330.40625 291.6875 322.628906 296.652344 308.753906 C 308.074219 311.203125 319.703125 315.945312 330.785156 309.367188 C 331.164062 309.144531 331.53125 308.921875 331.890625 308.699219 " fill-opacity="1" fill-rule="nonzero"/><path fill="rgb(100%, 83.529663%, 76.078796%)" d="M 288.953125 149.101562 C 286.34375 143.484375 280.292969 139.125 273.929688 140.027344 C 270.488281 140.515625 267.375 142.453125 264.683594 144.5625 C 262.136719 146.554688 259.933594 148.949219 258.117188 151.621094 C 256.304688 154.273438 254.898438 157.242188 254 160.332031 C 253.644531 161.539062 253.585938 162.355469 253.617188 163.554688 C 253.691406 167.175781 253.773438 170.800781 253.847656 174.421875 C 253.910156 177.375 253.976562 180.332031 254.039062 183.285156 C 254.050781 183.742188 254.292969 184.296875 254.734375 184.496094 C 262.199219 187.875 271.367188 188.175781 278.363281 183.488281 C 284.96875 179.066406 288.824219 171.261719 290.238281 163.609375 C 291.144531 158.703125 290.953125 153.714844 288.953125 149.101562 " fill-opacity="1" fill-rule="nonzero"/><path fill="rgb(29.40979%, 19.60907%, 17.649841%)" d="M 280.050781 158.308594 C 281.070312 157.828125 281.335938 156.355469 280.800781 155.433594 C 280.191406 154.382812 278.957031 154.203125 277.929688 154.683594 C 271.554688 157.6875 269.554688 165.132812 269.597656 171.621094 C 269.601562 172.757812 270.558594 173.71875 271.695312 173.71875 C 272.828125 173.71875 273.800781 172.757812 273.796875 171.621094 C 273.785156 170.171875 273.859375 168.664062 274.097656 167.207031 C 274.199219 167.199219 274.304688 167.1875 274.417969 167.160156 C 274.472656 167.148438 274.542969 167.136719 274.601562 167.125 C 274.953125 167.09375 275.300781 167.089844 275.648438 167.121094 C 275.976562 167.179688 276.292969 167.265625 276.597656 167.378906 C 276.808594 167.476562 277.027344 167.570312 277.226562 167.699219 C 277.675781 167.980469 278.328125 168.050781 278.835938 167.910156 C 279.324219 167.773438 279.851562 167.398438 280.09375 166.949219 C 280.636719 165.910156 280.335938 164.695312 279.339844 164.074219 C 278.167969 163.335938 276.8125 162.960938 275.449219 162.914062 C 276.53125 160.8125 277.925781 159.3125 280.050781 158.308594 " fill-opacity="1" fill-rule="nonzero"/><path fill="rgb(100%, 83.529663%, 76.078796%)" d="M 139.492188 188.867188 C 140.046875 190.976562 140.660156 193.0625 141.335938 195.140625 C 144.046875 203.457031 147.769531 211.460938 152.429688 218.859375 C 156.910156 225.96875 162.515625 232.507812 169.398438 237.394531 C 181.960938 246.339844 198.164062 250.101562 213.375 247.507812 C 228.171875 244.988281 241.480469 236.359375 250.265625 224.226562 C 254.648438 218.15625 257.855469 211.332031 259.667969 204.0625 C 261.886719 195.183594 261.679688 185.917969 261.554688 176.832031 C 261.492188 172.34375 261.449219 167.855469 261.730469 163.367188 C 262.003906 158.726562 262.523438 154.105469 262.925781 149.472656 C 262.9375 149.351562 262.9375 149.230469 262.957031 149.109375 C 267.582031 94.277344 199.808594 66.902344 159.199219 98.632812 C 145.535156 109.300781 139.503906 126.28125 136.972656 142.90625 C 134.628906 158.199219 135.554688 173.921875 139.492188 188.867188 " fill-opacity="1" fill-rule="nonzero"/><path fill="rgb(29.40979%, 19.60907%, 17.649841%)" d="M 220.394531 201.539062 C 220.605469 206.742188 217.03125 211.578125 211.609375 211.722656 C 205.882812 211.875 203.164062 206.339844 202.871094 201.355469 C 202.765625 199.5625 199.964844 199.554688 200.074219 201.355469 C 200.261719 204.527344 201.070312 207.730469 203.011719 210.300781 C 205.015625 212.960938 207.984375 214.402344 211.292969 214.523438 C 218.332031 214.777344 223.464844 208.230469 223.191406 201.539062 C 223.117188 199.738281 220.320312 199.734375 220.394531 201.539062 " fill-opacity="1" fill-rule="nonzero"/><path fill="rgb(29.40979%, 19.60907%, 17.649841%)" d="M 186.957031 174.304688 C 186.804688 172.839844 186.636719 171.390625 185.710938 170.1875 C 184.726562 168.914062 182.980469 168.121094 181.386719 168.71875 C 179.867188 169.296875 178.765625 170.625 178.492188 172.246094 C 178.273438 173.550781 178.328125 174.851562 178.511719 176.160156 C 178.675781 177.292969 179.117188 178.371094 179.882812 179.226562 C 180.261719 179.636719 180.714844 179.925781 181.214844 180.144531 C 181.308594 180.191406 181.40625 180.230469 181.503906 180.265625 C 181.558594 180.285156 181.609375 180.3125 181.667969 180.332031 C 181.707031 180.347656 181.75 180.347656 181.796875 180.355469 C 182.054688 180.425781 182.316406 180.472656 182.597656 180.480469 C 184.085938 180.527344 185.503906 179.625 186.273438 178.386719 C 187.035156 177.179688 187.105469 175.679688 186.957031 174.304688 " fill-opacity="1" fill-rule="nonzero"/><path fill="rgb(29.40979%, 19.60907%, 17.649841%)" d="M 245.1875 173.042969 C 245.027344 171.578125 244.859375 170.128906 243.9375 168.925781 C 242.953125 167.652344 241.207031 166.859375 239.621094 167.457031 C 238.089844 168.03125 236.992188 169.363281 236.71875 170.984375 C 236.503906 172.285156 236.554688 173.589844 236.742188 174.898438 C 236.902344 176.03125 237.335938 177.105469 238.109375 177.964844 C 238.488281 178.378906 238.945312 178.660156 239.441406 178.878906 C 239.535156 178.929688 239.636719 178.96875 239.738281 179.003906 C 239.785156 179.023438 239.839844 179.046875 239.894531 179.066406 C 239.933594 179.082031 239.980469 179.082031 240.023438 179.09375 C 240.273438 179.160156 240.542969 179.210938 240.820312 179.21875 C 242.3125 179.265625 243.730469 178.359375 244.503906 177.125 C 245.253906 175.921875 245.328125 174.417969 245.1875 173.042969 " fill-opacity="1" fill-rule="nonzero"/><path fill="rgb(94.509888%, 63.139343%, 72.549438%)" d="M 189.457031 187.808594 C 184.980469 182.640625 174.996094 182.921875 169.328125 185.621094 C 167.304688 186.578125 165.476562 188.3125 165.113281 190.527344 C 164.371094 195.046875 169.203125 198.179688 172.859375 199.414062 C 176.847656 200.757812 181.460938 200.847656 185.398438 199.28125 C 187.722656 198.351562 189.625 196.777344 190.566406 194.414062 C 191.449219 192.152344 191.046875 189.652344 189.457031 187.808594 " fill-opacity="1" fill-rule="nonzero"/><path fill="rgb(94.509888%, 63.139343%, 72.549438%)" d="M 259.136719 184.933594 C 254.179688 180.226562 244.269531 181.484375 238.894531 184.730469 C 236.96875 185.882812 235.324219 187.789062 235.183594 190.023438 C 234.894531 194.59375 240.003906 197.238281 243.765625 198.109375 C 247.871094 199.054688 252.472656 198.6875 256.230469 196.742188 C 258.453125 195.59375 260.195312 193.839844 260.890625 191.394531 C 261.558594 189.050781 260.902344 186.609375 259.136719 184.933594 " fill-opacity="1" fill-rule="nonzero"/><path fill="rgb(29.40979%, 19.60907%, 17.649841%)" d="M 240.960938 151.65625 C 240.546875 150.683594 240.003906 149.769531 239.367188 148.929688 C 239.589844 149.210938 239.800781 149.496094 240.023438 149.777344 C 239.347656 148.910156 238.570312 148.140625 237.703125 147.460938 C 237.984375 147.679688 238.265625 147.898438 238.550781 148.117188 C 237.675781 147.449219 236.734375 146.894531 235.726562 146.464844 C 236.058594 146.605469 236.390625 146.746094 236.722656 146.890625 C 236.363281 146.742188 235.988281 146.605469 235.621094 146.488281 C 234.589844 146.164062 233.664062 145.5 233.113281 144.5625 C 232.585938 143.660156 232.363281 142.332031 232.6875 141.324219 C 233.015625 140.304688 233.648438 139.324219 234.621094 138.8125 C 235.597656 138.296875 236.761719 138.046875 237.847656 138.390625 C 240.296875 139.152344 242.453125 140.414062 244.359375 142.121094 C 245.300781 142.964844 246.082031 143.953125 246.824219 144.96875 C 247.382812 145.730469 247.84375 146.550781 248.210938 147.417969 C 248.511719 147.902344 248.679688 148.421875 248.710938 148.980469 C 248.832031 149.535156 248.808594 150.09375 248.632812 150.652344 C 248.363281 151.625 247.609375 152.683594 246.707031 153.160156 C 245.730469 153.675781 244.550781 153.9375 243.472656 153.589844 C 242.507812 153.277344 241.378906 152.636719 240.960938 151.65625 " fill-opacity="1" fill-rule="nonzero"/><path fill="rgb(29.40979%, 19.60907%, 17.649841%)" d="M 171.011719 151.65625 C 171.425781 150.683594 171.964844 149.769531 172.609375 148.929688 C 172.394531 149.210938 172.171875 149.496094 171.957031 149.777344 C 172.632812 148.910156 173.40625 148.140625 174.273438 147.460938 C 173.988281 147.679688 173.707031 147.898438 173.425781 148.117188 C 174.296875 147.449219 175.246094 146.894531 176.253906 146.464844 C 175.921875 146.605469 175.589844 146.746094 175.253906 146.890625 C 175.613281 146.742188 175.980469 146.605469 176.359375 146.488281 C 177.386719 146.164062 178.3125 145.5 178.863281 144.5625 C 179.394531 143.660156 179.609375 142.332031 179.285156 141.324219 C 178.957031 140.304688 178.328125 139.324219 177.359375 138.8125 C 176.378906 138.296875 175.214844 138.046875 174.125 138.390625 C 171.683594 139.152344 169.519531 140.414062 167.617188 142.121094 C 166.675781 142.964844 165.890625 143.953125 165.144531 144.96875 C 164.601562 145.730469 164.136719 146.550781 163.765625 147.417969 C 163.460938 147.902344 163.292969 148.421875 163.269531 148.980469 C 163.140625 149.535156 163.167969 150.09375 163.347656 150.652344 C 163.609375 151.625 164.363281 152.683594 165.269531 153.160156 C 166.25 153.675781 167.425781 153.9375 168.507812 153.589844 C 169.472656 153.277344 170.59375 152.636719 171.011719 151.65625 " fill-opacity="1" fill-rule="nonzero"/><path fill="rgb(29.40979%, 19.60907%, 17.649841%)" d="M 207.359375 151.457031 C 210.601562 161.660156 214.824219 171.542969 219.945312 180.941406 C 220.234375 181.472656 220.945312 181.769531 221.523438 181.585938 C 222.351562 181.316406 223.035156 182.210938 222.882812 183.003906 C 222.679688 184.0625 221.597656 184.71875 220.660156 185.023438 C 219.375 185.433594 217.9375 185.289062 216.617188 185.214844 C 215.144531 185.128906 213.675781 185.046875 212.199219 184.960938 C 210.398438 184.859375 210.40625 187.660156 212.199219 187.761719 C 216.152344 187.984375 221.3125 189.121094 224.382812 185.914062 C 225.605469 184.632812 226.136719 182.605469 225.289062 180.984375 C 224.4375 179.347656 222.613281 178.296875 220.78125 178.882812 C 221.308594 179.097656 221.832031 179.3125 222.359375 179.527344 C 217.347656 170.332031 213.230469 160.691406 210.058594 150.710938 C 209.511719 148.996094 206.8125 149.730469 207.359375 151.457031 " fill-opacity="1" fill-rule="nonzero"/><path fill="rgb(100%, 83.529663%, 76.078796%)" d="M 114.023438 161.234375 C 116.621094 155.621094 122.675781 151.253906 129.035156 152.164062 C 132.476562 152.65625 135.59375 154.585938 138.292969 156.695312 C 140.832031 158.691406 143.03125 161.085938 144.851562 163.753906 C 146.664062 166.40625 148.066406 169.378906 148.972656 172.464844 C 149.328125 173.671875 149.382812 174.492188 149.355469 175.691406 C 149.28125 179.308594 149.203125 182.9375 149.117188 186.558594 C 149.050781 189.511719 148.988281 192.46875 148.925781 195.425781 C 148.914062 195.875 148.675781 196.429688 148.230469 196.628906 C 140.765625 200.003906 131.605469 200.308594 124.601562 195.621094 C 117.996094 191.199219 114.140625 183.398438 112.722656 175.746094 C 111.820312 170.835938 112.015625 165.851562 114.023438 161.234375 " fill-opacity="1" fill-rule="nonzero"/><path fill="rgb(29.40979%, 19.60907%, 17.649841%)" d="M 122.914062 170.445312 C 121.894531 169.964844 121.632812 168.488281 122.167969 167.570312 C 122.78125 166.523438 124.007812 166.332031 125.039062 166.816406 C 131.410156 169.824219 133.410156 177.265625 133.367188 183.753906 C 133.359375 184.890625 132.410156 185.859375 131.269531 185.859375 C 130.136719 185.859375 129.164062 184.894531 129.175781 183.753906 C 129.179688 182.308594 129.105469 180.800781 128.875 179.339844 C 128.765625 179.332031 128.664062 179.320312 128.558594 179.296875 C 128.488281 179.28125 128.429688 179.269531 128.363281 179.257812 C 128.015625 179.226562 127.660156 179.226562 127.3125 179.253906 C 126.992188 179.316406 126.679688 179.398438 126.367188 179.507812 C 126.15625 179.609375 125.949219 179.710938 125.75 179.832031 C 125.289062 180.113281 124.636719 180.1875 124.125 180.046875 C 123.640625 179.914062 123.117188 179.535156 122.875 179.082031 C 122.328125 178.046875 122.632812 176.828125 123.628906 176.207031 C 124.800781 175.472656 126.152344 175.097656 127.515625 175.046875 C 126.441406 172.953125 125.046875 171.445312 122.914062 170.445312 " fill-opacity="1" fill-rule="nonzero"/><path fill="rgb(29.40979%, 19.60907%, 17.649841%)" d="M 209.320312 78.4375 C 198.683594 73.222656 186.101562 74.707031 175.722656 79.808594 C 164.949219 85.101562 156.339844 93.902344 148.488281 102.796875 C 144.4375 107.394531 140.558594 112.179688 137.324219 117.402344 C 134.085938 122.621094 131.601562 128.28125 129.925781 134.191406 C 126.542969 146.09375 126.429688 158.59375 128.433594 170.738281 C 129.671875 178.253906 131.484375 185.671875 133.140625 193.097656 C 134.820312 200.636719 136.503906 208.175781 138.191406 215.714844 C 138.480469 217.023438 140.621094 217.074219 140.886719 215.714844 C 143.125 203.996094 145.363281 192.285156 147.601562 180.570312 C 148.632812 175.167969 149.433594 169.636719 151.054688 164.375 C 152.5 159.667969 154.9375 155.613281 158.402344 152.125 C 164.785156 145.710938 173.03125 141.449219 179.035156 134.621094 C 182.277344 130.941406 184.828125 126.75 186.679688 122.210938 C 188.664062 117.332031 189.472656 112.222656 189.933594 107.007812 C 190.441406 101.324219 190.65625 95.347656 193.175781 90.121094 C 195.265625 85.765625 198.742188 81.960938 203.675781 81.117188 C 204.574219 80.96875 204.824219 80.210938 204.628906 79.53125 C 205.738281 79.902344 206.832031 80.332031 207.90625 80.855469 C 209.511719 81.644531 210.941406 79.230469 209.320312 78.4375 " fill-opacity="1" fill-rule="nonzero"/><path fill="rgb(29.40979%, 19.60907%, 17.649841%)" d="M 271.140625 132.25 C 269.773438 125.617188 267.996094 118.816406 265.289062 112.589844 C 262.75 106.761719 258.839844 101.675781 254.222656 97.332031 C 245.675781 89.304688 235.070312 83.542969 223.789062 80.394531 C 214.414062 77.773438 204.558594 76.957031 194.902344 78.058594 C 194.996094 77.203125 195.101562 76.359375 195.265625 75.515625 C 195.617188 73.757812 192.925781 73.003906 192.566406 74.773438 C 192.332031 75.988281 192.167969 77.210938 192.074219 78.433594 C 189.71875 78.800781 187.378906 79.269531 185.066406 79.867188 C 183.320312 80.3125 184.0625 83.011719 185.8125 82.5625 C 187.859375 82.039062 189.929688 81.613281 192.015625 81.277344 C 192.179688 88.535156 194.949219 95.65625 199.683594 101.238281 C 202.875 105.011719 206.90625 107.800781 211.464844 109.660156 C 214.371094 110.839844 217.410156 111.6875 220.265625 112.988281 C 222.515625 114.007812 224.660156 115.292969 226.605469 116.8125 C 230.597656 119.945312 233.804688 124.023438 235.921875 128.632812 C 237.105469 131.203125 237.730469 133.957031 238.609375 136.632812 C 239.449219 139.1875 240.597656 141.511719 242.324219 143.585938 C 245.636719 147.542969 250.410156 150.082031 253.359375 154.355469 C 256.503906 158.90625 257.472656 164.554688 258.171875 169.929688 C 260.085938 184.660156 261.242188 199.484375 261.757812 214.328125 C 261.8125 215.859375 264.121094 216.285156 264.5 214.703125 C 267.753906 201.152344 266.734375 187.164062 267.457031 173.371094 C 267.632812 170.003906 267.902344 166.644531 268.398438 163.316406 C 268.917969 159.804688 269.765625 156.390625 270.621094 152.953125 C 271.476562 149.503906 272.210938 146.019531 272.261719 142.453125 C 272.320312 139.027344 271.832031 135.597656 271.140625 132.25 " fill-opacity="1" fill-rule="nonzero"/><g clip-path="url(#clip-0)"><path fill="rgb(22.349548%, 20.779419%, 21.179199%)" d="M 245.390625 195.410156 C 233.371094 195.410156 223.59375 185.550781 223.59375 173.4375 C 223.59375 161.328125 233.371094 151.472656 245.390625 151.472656 C 257.410156 151.472656 267.191406 161.328125 267.191406 173.4375 C 267.191406 185.550781 257.410156 195.410156 245.390625 195.410156 Z M 186.710938 195.410156 C 174.691406 195.410156 164.914062 185.550781 164.914062 173.4375 C 164.914062 161.328125 174.691406 151.472656 186.710938 151.472656 C 198.726562 151.472656 208.511719 161.328125 208.511719 173.4375 C 208.511719 185.550781 198.726562 195.410156 186.710938 195.410156 Z M 272.875 170.148438 L 270.554688 170.148438 C 268.945312 157.59375 258.28125 147.863281 245.390625 147.863281 C 233.554688 147.863281 223.582031 156.074219 220.792969 167.140625 C 219.496094 166.082031 217.84375 165.449219 216.046875 165.449219 C 214.257812 165.449219 212.609375 166.082031 211.3125 167.140625 C 208.519531 156.074219 198.550781 147.863281 186.710938 147.863281 C 173.824219 147.863281 163.15625 157.59375 161.546875 170.148438 L 158.839844 170.148438 C 157.03125 170.148438 155.566406 171.621094 155.566406 173.441406 C 155.566406 175.261719 157.03125 176.738281 158.839844 176.738281 L 161.546875 176.738281 C 163.160156 189.285156 173.824219 199.019531 186.710938 199.019531 C 200.707031 199.019531 212.09375 187.542969 212.09375 173.4375 C 212.09375 173.308594 212.085938 173.175781 212.085938 173.042969 L 212.09375 173.042969 C 212.09375 170.847656 213.867188 169.054688 216.046875 169.054688 C 218.234375 169.054688 220.011719 170.847656 220.011719 173.042969 L 220.019531 173.042969 C 220.019531 173.175781 220.011719 173.308594 220.011719 173.4375 C 220.011719 187.542969 231.394531 199.019531 245.390625 199.019531 C 258.277344 199.019531 268.941406 189.285156 270.554688 176.738281 L 272.875 176.738281 C 274.679688 176.738281 276.140625 175.261719 276.140625 173.441406 C 276.140625 171.621094 274.679688 170.148438 272.875 170.148438 " fill-opacity="1" fill-rule="nonzero"/></g><g clip-path="url(#clip-1)"><path fill="rgb(22.349548%, 20.779419%, 21.179199%)" d="M 245.390625 195.410156 L 245.390625 194.757812 C 239.558594 194.757812 234.273438 192.367188 230.441406 188.507812 C 226.609375 184.644531 224.238281 179.316406 224.238281 173.4375 C 224.238281 167.5625 226.609375 162.234375 230.441406 158.375 C 234.273438 154.511719 239.558594 152.125 245.390625 152.125 C 251.222656 152.125 256.511719 154.511719 260.34375 158.375 C 264.175781 162.238281 266.546875 167.5625 266.546875 173.4375 C 266.546875 179.316406 264.175781 184.644531 260.34375 188.507812 C 256.507812 192.367188 251.222656 194.757812 245.390625 194.757812 L 245.390625 196.058594 C 257.769531 196.054688 267.835938 185.910156 267.835938 173.4375 C 267.835938 160.96875 257.769531 150.824219 245.390625 150.824219 C 233.015625 150.824219 222.949219 160.96875 222.945312 173.4375 C 222.949219 185.910156 233.015625 196.054688 245.390625 196.058594 Z M 186.710938 195.410156 L 186.710938 194.757812 C 180.878906 194.757812 175.59375 192.367188 171.761719 188.507812 C 167.929688 184.644531 165.558594 179.316406 165.558594 173.4375 C 165.558594 167.5625 167.929688 162.234375 171.761719 158.375 C 175.59375 154.511719 180.878906 152.125 186.710938 152.125 C 192.542969 152.125 197.828125 154.511719 201.660156 158.375 C 205.492188 162.238281 207.867188 167.5625 207.867188 173.4375 C 207.867188 179.316406 205.492188 184.644531 201.660156 188.507812 C 197.828125 192.367188 192.542969 194.757812 186.710938 194.757812 L 186.710938 196.058594 C 199.082031 196.054688 209.152344 185.910156 209.15625 173.4375 C 209.152344 160.96875 199.082031 150.824219 186.710938 150.824219 C 174.332031 150.824219 164.269531 160.96875 164.269531 173.4375 C 164.269531 185.910156 174.332031 196.054688 186.710938 196.058594 Z M 272.875 170.148438 L 272.875 169.496094 L 270.554688 169.496094 L 270.554688 170.148438 L 271.195312 170.0625 C 270.371094 163.625 267.222656 157.914062 262.632812 153.8125 C 258.039062 149.710938 251.996094 147.214844 245.390625 147.214844 C 239.320312 147.214844 233.730469 149.320312 229.300781 152.84375 C 224.871094 156.367188 221.597656 161.304688 220.167969 166.980469 L 220.792969 167.140625 L 221.195312 166.636719 C 219.792969 165.488281 217.996094 164.796875 216.046875 164.796875 C 214.101562 164.796875 212.3125 165.488281 210.90625 166.636719 L 211.3125 167.140625 L 211.9375 166.980469 C 210.503906 161.304688 207.234375 156.363281 202.804688 152.839844 C 198.375 149.320312 192.78125 147.214844 186.710938 147.214844 C 180.105469 147.214844 174.0625 149.710938 169.472656 153.8125 C 164.878906 157.914062 161.734375 163.625 160.90625 170.0625 L 161.546875 170.148438 L 161.546875 169.496094 L 158.839844 169.496094 C 156.675781 169.496094 154.921875 171.261719 154.921875 173.441406 C 154.921875 175.621094 156.675781 177.386719 158.839844 177.386719 L 161.546875 177.386719 L 161.546875 176.738281 L 160.90625 176.820312 C 161.734375 183.257812 164.882812 188.96875 169.472656 193.070312 C 174.0625 197.171875 180.105469 199.667969 186.710938 199.667969 C 201.066406 199.667969 212.738281 187.902344 212.738281 173.4375 C 212.738281 173.277344 212.730469 173.144531 212.730469 173.03125 L 212.085938 173.042969 L 212.085938 173.691406 L 212.738281 173.691406 L 212.738281 173.042969 C 212.738281 172.121094 213.109375 171.292969 213.710938 170.683594 C 214.3125 170.078125 215.132812 169.707031 216.046875 169.707031 C 216.964844 169.707031 217.792969 170.078125 218.394531 170.683594 C 218.996094 171.292969 219.367188 172.121094 219.367188 173.042969 L 219.367188 173.691406 L 220.019531 173.691406 L 220.019531 173.042969 L 219.375 173.03125 C 219.375 173.144531 219.367188 173.277344 219.367188 173.4375 C 219.367188 187.902344 231.039062 199.667969 245.390625 199.667969 C 251.996094 199.667969 258.039062 197.171875 262.628906 193.070312 C 267.21875 188.96875 270.367188 183.257812 271.195312 176.820312 L 270.554688 176.738281 L 270.554688 177.386719 L 272.875 177.386719 C 273.953125 177.386719 274.9375 176.945312 275.640625 176.230469 C 276.347656 175.519531 276.785156 174.527344 276.785156 173.441406 C 276.785156 171.265625 275.035156 169.496094 272.875 169.496094 L 272.875 170.796875 C 273.601562 170.796875 274.253906 171.089844 274.730469 171.570312 C 275.203125 172.050781 275.496094 172.707031 275.496094 173.441406 C 275.496094 174.175781 275.203125 174.832031 274.730469 175.3125 C 274.253906 175.792969 273.601562 176.089844 272.875 176.089844 L 269.988281 176.089844 L 269.917969 176.65625 C 269.128906 182.769531 266.140625 188.195312 261.773438 192.097656 C 257.40625 196 251.671875 198.371094 245.390625 198.371094 C 238.570312 198.371094 232.390625 195.574219 227.90625 191.058594 C 223.429688 186.542969 220.65625 180.3125 220.65625 173.4375 C 220.65625 173.332031 220.664062 173.207031 220.664062 173.050781 L 220.675781 172.390625 L 220.011719 172.390625 L 220.011719 173.042969 L 220.65625 173.042969 C 220.65625 170.484375 218.59375 168.40625 216.046875 168.40625 C 213.507812 168.40625 211.453125 170.488281 211.449219 173.042969 L 212.09375 173.042969 L 212.09375 172.390625 L 211.429688 172.390625 L 211.441406 173.050781 C 211.441406 173.207031 211.449219 173.332031 211.449219 173.4375 C 211.449219 180.3125 208.675781 186.542969 204.195312 191.058594 C 199.714844 195.574219 193.535156 198.371094 186.710938 198.371094 C 180.429688 198.371094 174.695312 196 170.328125 192.097656 C 165.964844 188.195312 162.972656 182.769531 162.1875 176.65625 L 162.113281 176.089844 L 158.839844 176.089844 C 158.109375 176.089844 157.457031 175.792969 156.980469 175.3125 C 156.503906 174.832031 156.210938 174.175781 156.210938 173.441406 C 156.210938 172.707031 156.503906 172.050781 156.980469 171.570312 C 157.457031 171.09375 158.109375 170.796875 158.839844 170.796875 L 162.113281 170.796875 L 162.1875 170.230469 C 162.96875 164.113281 165.960938 158.6875 170.328125 154.785156 C 174.695312 150.882812 180.429688 148.515625 186.710938 148.515625 C 192.484375 148.515625 197.792969 150.511719 202.003906 153.863281 C 206.21875 157.210938 209.328125 161.910156 210.6875 167.300781 L 210.9375 168.28125 L 211.71875 167.644531 C 212.90625 166.675781 214.40625 166.097656 216.046875 166.097656 C 217.691406 166.097656 219.199219 166.675781 220.386719 167.644531 L 221.167969 168.285156 L 221.417969 167.300781 C 222.777344 161.910156 225.886719 157.210938 230.097656 153.863281 C 234.3125 150.511719 239.621094 148.515625 245.390625 148.515625 C 251.671875 148.515625 257.40625 150.882812 261.773438 154.785156 C 266.140625 158.6875 269.132812 164.113281 269.917969 170.230469 L 269.988281 170.796875 L 272.875 170.796875 L 272.875 170.148438 " fill-opacity="1" fill-rule="nonzero"/></g><g clip-path="url(#clip-2)"><g clip-path="url(#clip-3)"><g clip-path="url(#clip-4)"><path fill="rgb(22.349548%, 20.779419%, 21.179199%)" d="M 139.058594 167.191406 L 215.421875 176.050781 L 214.773438 181.617188 L 138.410156 172.757812 Z M 139.058594 167.191406 " fill-opacity="1" fill-rule="nonzero"/></g></g></g></svg>